<svg width="27" height="27" viewBox="0 0 27 27" fill="none" xmlns="http://www.w3.org/2000/svg">
<path d="M24.7672 13.5945C24.7672 19.8572 19.6901 24.94 13.4217 24.94C7.15329 24.94 2.07617 19.8572 2.07617 13.5945C2.07617 7.32613 7.15329 2.24902 13.4217 2.24902C19.6901 2.24902 24.7672 7.32613 24.7672 13.5945Z" fill="#333333"/>
<path d="M18.7397 10.7239C18.6778 10.76 17.2039 11.5222 17.2039 13.2122C17.2734 15.1395 19.0638 15.8154 19.0945 15.8154C19.0638 15.8515 18.8242 16.7361 18.1145 17.6634C17.5513 18.4622 16.9261 19.2676 15.9768 19.2676C15.0738 19.2676 14.7496 18.7352 13.7077 18.7352C12.5887 18.7352 12.2721 19.2676 11.4154 19.2676C10.4661 19.2676 9.79461 18.4191 9.20066 17.6278C8.42902 16.5921 7.77316 14.9669 7.75 13.4064C7.7344 12.5794 7.90453 11.7666 8.3364 11.0762C8.94596 10.1123 10.0342 9.45795 11.2226 9.43637C12.1332 9.40776 12.9436 10.0189 13.4993 10.0189C14.0318 10.0189 15.0275 9.43637 16.1539 9.43637C16.6402 9.43684 17.9368 9.57333 18.7397 10.7239ZM13.4223 9.27127C13.2602 8.5161 13.7077 7.76094 14.1244 7.27923C14.657 6.69667 15.4981 6.30127 16.2234 6.30127C16.2697 7.05643 15.9763 7.79706 15.4518 8.33646C14.9811 8.91901 14.1707 9.35757 13.4223 9.27127Z" fill="white"/>
</svg>
