<svg width="35" height="34" viewBox="0 0 35 34" fill="none" xmlns="http://www.w3.org/2000/svg">
<path d="M29.2668 9.46289L27.3828 27.5827C27.3226 28.0943 27.0767 28.566 26.6918 28.9083C26.3068 29.2506 25.8096 29.4397 25.2945 29.4398H10.1088C9.59363 29.4397 9.09642 29.2506 8.71147 28.9083C8.32652 28.566 8.08061 28.0943 8.0204 27.5827L6.13574 9.46289" stroke="#232321" stroke-width="1.57712" stroke-linecap="round" stroke-linejoin="round"/>
<path d="M31.3696 4.20557H4.03286C3.45218 4.20557 2.98145 4.6763 2.98145 5.25698V8.41122C2.98145 8.9919 3.45218 9.46264 4.03286 9.46264H31.3696C31.9503 9.46264 32.421 8.9919 32.421 8.41122V5.25698C32.421 4.6763 31.9503 4.20557 31.3696 4.20557Z" stroke="#232321" stroke-width="1.57712" stroke-linecap="round" stroke-linejoin="round"/>
<path d="M21.3814 15.771L14.0215 23.1309M21.3814 23.1309L14.0215 15.771" stroke="#232321" stroke-width="1.57712" stroke-linecap="round" stroke-linejoin="round"/>
</svg>
