<svg width="24" height="24" viewBox="0 0 24 24" fill="none" xmlns="http://www.w3.org/2000/svg">
<path fill-rule="evenodd" clip-rule="evenodd" d="M11.9817 0C5.55706 0 0.348877 5.20819 0.348877 11.6328C0.348877 18.0574 5.55706 23.2656 11.9817 23.2656C18.4063 23.2656 23.6145 18.0574 23.6145 11.6328C23.6145 8.5476 22.3889 5.58875 20.2073 3.40717C18.0258 1.2256 15.0669 0 11.9817 0ZM21.288 11.6329C19.9559 11.2329 18.5725 11.0292 17.1816 11.028C16.3541 11.0391 15.5291 11.1208 14.7155 11.2723C14.4247 10.5627 14.1222 9.87638 13.7965 9.19004C15.7096 8.23419 17.4541 6.97295 18.9615 5.45591C20.4713 7.15807 21.2998 9.35764 21.288 11.6329ZM12.9939 7.65439C14.7199 6.78854 16.2919 5.64492 17.647 4.26924C16.0242 3.01513 14.0327 2.33219 11.9818 2.32656C11.2288 2.32959 10.4789 2.42333 9.7483 2.60575C10.9616 4.20038 12.0469 5.88853 12.9939 7.65439ZM8.04977 3.21066C9.31053 4.83693 10.435 6.56445 11.4117 8.37563C9.3684 9.17352 7.19547 9.5876 5.00197 9.59708C4.3139 9.58957 3.62667 9.54686 2.94296 9.46912C3.60395 6.71443 5.48367 4.41081 8.04977 3.21066ZM2.67543 11.1908V11.6329C2.68082 13.9282 3.53428 16.1405 5.07179 17.8448C6.88187 14.9012 9.7022 12.7177 13.0054 11.7027C12.7611 11.0978 12.4819 10.5161 12.2027 9.93452L12.2027 9.9345L12.2027 9.93448L12.2027 9.93446C9.91383 10.8573 7.46991 11.335 5.002 11.342C4.22411 11.3393 3.44712 11.2888 2.67543 11.1908ZM6.3749 19.0429C7.97056 16.2816 10.5644 14.2373 13.6221 13.3312C14.4401 15.5914 15.021 17.9305 15.3554 20.3108C12.3485 21.4938 8.94177 21.0172 6.3749 19.0545V19.0429ZM15.3437 12.9357C16.0861 15.0579 16.6389 17.2418 16.9956 19.4617C19.1315 18.0976 20.6187 15.9214 21.1136 13.4359C19.8457 13.0135 18.5182 12.7975 17.1817 12.7961C16.5666 12.8017 15.9526 12.8483 15.3437 12.9357Z" fill="white"/>
</svg>
