<svg width="21" height="23" viewBox="0 0 21 23" fill="none" xmlns="http://www.w3.org/2000/svg">
<path d="M20.9391 3.18824V20.0774C20.9391 21.4099 19.8974 22.4901 18.6125 22.4901H14.2502C13.929 22.4901 13.6686 22.22 13.6686 21.8869V14.6487H16.3906C16.6671 14.6488 16.9054 14.4471 16.9606 14.1662L17.3794 11.9947C17.3967 11.907 17.3755 11.8158 17.3216 11.7459C17.2676 11.676 17.1866 11.6346 17.1002 11.6328H13.6686V7.71212C13.6686 7.54555 13.7988 7.41052 13.9594 7.41052H16.8676C17.1888 7.41052 17.4492 7.14047 17.4492 6.80734V4.99779C17.4492 4.66466 17.1888 4.39461 16.8676 4.39461H13.9594C12.032 4.39461 10.4695 6.01493 10.4695 8.01371V11.6328H9.0387C8.71746 11.6328 8.45705 11.9029 8.45705 12.236V14.0455C8.45705 14.3787 8.71746 14.6487 9.0387 14.6487H10.4695V21.8869C10.4695 22.22 10.2091 22.4901 9.88789 22.4901H2.32656C1.04164 22.4901 0 21.4099 0 20.0774V3.18824C0 1.85573 1.04164 0.775513 2.32656 0.775513H18.6125C19.8974 0.775513 20.9391 1.85573 20.9391 3.18824Z" fill="white"/>
</svg>
