<svg width="21" height="21" viewBox="0 0 21 21" fill="none" xmlns="http://www.w3.org/2000/svg">
<path d="M18.9321 10.7836C18.9321 10.0839 18.8742 9.57339 18.7488 9.04395H10.5967V12.2017H15.3818C15.2854 12.9865 14.7644 14.1683 13.6067 14.9625L13.5905 15.0682L16.168 17.0251L16.3466 17.0425C17.9866 15.5581 18.9321 13.3741 18.9321 10.7836" fill="#4285F4"/>
<path d="M10.5955 19.1041C12.9398 19.1041 14.9079 18.3477 16.3454 17.043L13.6055 14.9629C12.8723 15.464 11.8882 15.8138 10.5955 15.8138C8.29939 15.8138 6.35061 14.3295 5.65592 12.2778L5.5541 12.2863L2.87392 14.3191L2.83887 14.4146C4.26668 17.1942 7.19953 19.1041 10.5955 19.1041Z" fill="#34A853"/>
<path d="M5.65727 12.2774C5.47397 11.7479 5.36788 11.1806 5.36788 10.5945C5.36788 10.0083 5.47397 9.441 5.64762 8.91155L5.64277 8.79879L2.92899 6.7334L2.8402 6.77479C2.25173 7.92826 1.91406 9.22356 1.91406 10.5945C1.91406 11.9654 2.25173 13.2606 2.8402 14.4141L5.65727 12.2774" fill="#FBBC05"/>
<path d="M10.5955 5.37611C12.2259 5.37611 13.3257 6.06629 13.9528 6.64306L16.4033 4.29831C14.8983 2.9274 12.9398 2.08594 10.5955 2.08594C7.19955 2.08594 4.26669 3.99575 2.83887 6.77538L5.64629 8.91214C6.35063 6.8605 8.29942 5.37611 10.5955 5.37611" fill="#EB4335"/>
</svg>
