<svg width="17" height="15" viewBox="0 0 17 15" fill="none" xmlns="http://www.w3.org/2000/svg">
<path d="M15.516 1.30003L14.8677 0.651672C14.6845 0.468435 14.3462 0.496635 14.1347 0.75031L11.8793 2.9915C10.8643 2.55458 9.75084 2.34315 8.58084 2.34315C5.09909 2.35719 2.0828 4.38695 0.630832 7.30495C0.546233 7.48819 0.546233 7.71366 0.630832 7.8687C1.30737 9.2501 2.32232 10.3919 3.59094 11.2517L1.74441 13.1264C1.53297 13.3378 1.50477 13.6761 1.64577 13.8593L2.29412 14.5077C2.47736 14.6909 2.81565 14.6627 3.02708 14.4091L15.4031 2.0331C15.6709 1.82179 15.6991 1.48352 15.5159 1.30027L15.516 1.30003ZM9.32791 5.55684C9.08827 5.50044 8.8346 5.43 8.59495 5.43C7.39677 5.43 6.43836 6.38853 6.43836 7.58659C6.43836 7.82622 6.49476 8.0799 6.56519 8.31955L5.62068 9.2499C5.3388 8.75658 5.18376 8.20676 5.18376 7.58662C5.18376 5.7119 6.69203 4.20364 8.56674 4.20364C9.18701 4.20364 9.73671 4.35868 10.23 4.64056L9.32791 5.55684Z" fill="#666666" fill-opacity="0.8"/>
<path d="M16.5309 7.30505C16.0376 6.31831 15.3891 5.43034 14.5857 4.71143L11.9639 7.30505V7.58693C11.9639 9.46164 10.4556 10.9699 8.5809 10.9699H8.29902L6.63574 12.6332C7.25601 12.76 7.90436 12.8446 8.53867 12.8446C12.0204 12.8446 15.0367 10.8149 16.4887 7.88282C16.6155 7.68542 16.6155 7.48816 16.5309 7.3049L16.5309 7.30505Z" fill="#666666" fill-opacity="0.8"/>
</svg>
