<svg width="22" height="22" viewBox="0 0 22 22" fill="none" xmlns="http://www.w3.org/2000/svg">
<path fill-rule="evenodd" clip-rule="evenodd" d="M15.9806 0.163269H6.67432C3.462 0.163269 0.85791 2.76736 0.85791 5.97968V15.2859C0.85791 18.4982 3.462 21.1023 6.67432 21.1023H15.9806C19.1929 21.1023 21.797 18.4982 21.797 15.2859V5.97968C21.797 2.76736 19.1929 0.163269 15.9806 0.163269ZM19.7612 15.2859C19.7548 17.3713 18.0659 19.0602 15.9806 19.0666H6.67431C4.58896 19.0602 2.90003 17.3713 2.89365 15.2859V5.97968C2.90003 3.89433 4.58896 2.20541 6.67431 2.19902H15.9806C18.0659 2.20541 19.7548 3.89433 19.7612 5.97968V15.2859ZM16.853 6.2705C17.4955 6.2705 18.0163 5.74969 18.0163 5.10722C18.0163 4.46476 17.4955 3.94394 16.853 3.94394C16.2106 3.94394 15.6897 4.46476 15.6897 5.10722C15.6897 5.74969 16.2106 6.2705 16.853 6.2705ZM11.3274 5.39806C8.43635 5.39806 6.09267 7.74174 6.09267 10.6328C6.09267 13.5239 8.43635 15.8676 11.3274 15.8676C14.2185 15.8676 16.5622 13.5239 16.5622 10.6328C16.5653 9.24353 16.0148 7.91024 15.0324 6.92786C14.05 5.94548 12.7167 5.39496 11.3274 5.39806ZM8.12841 10.6328C8.12841 12.3996 9.56066 13.8318 11.3274 13.8318C13.0942 13.8318 14.5265 12.3996 14.5265 10.6328C14.5265 8.86604 13.0942 7.43378 11.3274 7.43378C9.56066 7.43378 8.12841 8.86604 8.12841 10.6328Z" fill="white"/>
</svg>
