<svg width="13" height="12" viewBox="0 0 13 12" fill="none" xmlns="http://www.w3.org/2000/svg">
<path d="M0.73094 10.2511C0.390606 10.5858 0.390606 11.1285 0.73094 11.4632C1.07127 11.7979 1.62306 11.7979 1.9634 11.4632L0.73094 10.2511ZM12.0964 1.14289C12.0964 0.669552 11.7062 0.285833 11.2249 0.285833L3.38157 0.285833C2.90026 0.285833 2.51009 0.669552 2.51009 1.14289C2.51009 1.61623 2.90026 1.99995 3.38157 1.99995H10.3534V8.85643C10.3534 9.32978 10.7436 9.7135 11.2249 9.7135C11.7062 9.7135 12.0964 9.32978 12.0964 8.85643V1.14289ZM1.9634 11.4632L11.8411 1.74893L10.6086 0.53686L0.73094 10.2511L1.9634 11.4632Z" fill="white"/>
</svg>
