<svg width="23" height="22" viewBox="0 0 23 22" fill="none" xmlns="http://www.w3.org/2000/svg">
<path fill-rule="evenodd" clip-rule="evenodd" d="M3.12831 0.163269H20.0174C21.3499 0.163269 22.4302 1.20491 22.4302 2.48983V18.7758C22.4302 20.0607 21.3499 21.1023 20.0174 21.1023H3.12831C1.79579 21.1023 0.715576 20.0607 0.715576 18.7758V2.48983C0.715576 1.20491 1.79579 0.163269 3.12831 0.163269ZM6.74738 17.6125C7.08051 17.6125 7.35057 17.3521 7.35057 17.0309V8.88789C7.35057 8.56666 7.08051 8.30625 6.74738 8.30625H4.93784C4.60471 8.30625 4.33465 8.56666 4.33465 8.88789V17.0309C4.33465 17.3521 4.60471 17.6125 4.93784 17.6125H6.74738ZM5.84264 7.14296C4.84325 7.14296 4.03309 6.36174 4.03309 5.39804C4.03309 4.43435 4.84325 3.65312 5.84264 3.65312C6.84202 3.65312 7.65218 4.43435 7.65218 5.39804C7.65218 6.36174 6.84202 7.14296 5.84264 7.14296ZM18.2079 17.6125C18.541 17.6125 18.8111 17.3521 18.8111 17.0309V11.6798C18.8502 9.83109 17.4329 8.25338 15.5297 8.0271C14.1992 7.90989 12.9098 8.50917 12.176 9.5859V8.88793C12.176 8.5667 11.906 8.30629 11.5729 8.30629H9.76332C9.43019 8.30629 9.16013 8.5667 9.16013 8.88793V17.0309C9.16013 17.3521 9.43019 17.6125 9.76332 17.6125H11.5729C11.906 17.6125 12.176 17.3521 12.176 17.0309V12.6686C12.176 11.7049 12.9862 10.9237 13.9856 10.9237C14.985 10.9237 15.7951 11.7049 15.7951 12.6686V17.0309C15.7951 17.3521 16.0652 17.6125 16.3983 17.6125H18.2079Z" fill="white"/>
</svg>
