<svg width="18" height="19" viewBox="0 0 18 19" fill="none" xmlns="http://www.w3.org/2000/svg">
<path d="M13.5833 7.3949L13.5138 6.45785C13.4501 5.59945 12.7083 4.93437 11.8146 4.93437H9.99368M3.5 16.4168H2.45365C1.465 16.4168 0.683979 15.6092 0.754417 14.6596L1.36283 6.45785C1.42651 5.59945 2.16831 4.93437 3.06207 4.93437H4.88298M4.88298 4.93437V3.29402C4.88298 1.93511 6.02705 0.833496 7.43833 0.833496C8.84961 0.833496 9.99368 1.93511 9.99368 3.29402V4.93437M4.88298 4.93437H9.99368M13.5833 12.7502C13.5833 13.7627 12.7625 14.5835 11.75 14.5835C10.7375 14.5835 9.91667 13.7627 9.91667 12.7502M8.08333 18.2502H15.4167C16.4292 18.2502 17.25 17.4294 17.25 16.4168V11.8335C17.25 10.821 16.4292 10.0002 15.4167 10.0002H8.08333C7.07081 10.0002 6.25 10.821 6.25 11.8335V16.4168C6.25 17.4294 7.07081 18.2502 8.08333 18.2502Z" stroke="#807D7E" stroke-width="1.5" stroke-linecap="round"/>
</svg>
