<svg width="26" height="25" viewBox="0 0 26 25" fill="none" xmlns="http://www.w3.org/2000/svg">
<path d="M19.3708 0.947571H6.82918C3.06668 0.947571 0.55835 3.4559 0.55835 7.2184V14.7434C0.55835 18.5059 3.06668 21.0142 6.82918 21.0142V23.6856C6.82918 24.6889 7.94539 25.2909 8.77314 24.7266L14.3542 21.0142H19.3708C23.1334 21.0142 25.6417 18.5059 25.6417 14.7434V7.2184C25.6417 3.4559 23.1334 0.947571 19.3708 0.947571ZM13.1 16.2108C12.5733 16.2108 12.1594 15.7844 12.1594 15.2702C12.1594 14.7559 12.5733 14.3295 13.1 14.3295C13.6268 14.3295 14.0406 14.7559 14.0406 15.2702C14.0406 15.7844 13.6268 16.2108 13.1 16.2108ZM14.6803 11.006C14.1911 11.3321 14.0406 11.5453 14.0406 11.8964V12.1598C14.0406 12.674 13.6142 13.1004 13.1 13.1004C12.5858 13.1004 12.1594 12.674 12.1594 12.1598V11.8964C12.1594 10.4416 13.2254 9.72674 13.6268 9.45082C14.0908 9.13728 14.2413 8.92407 14.2413 8.59799C14.2413 7.9709 13.7271 7.4567 13.1 7.4567C12.4729 7.4567 11.9587 7.9709 11.9587 8.59799C11.9587 9.1122 11.5323 9.53861 11.0181 9.53861C10.5039 9.53861 10.0775 9.1122 10.0775 8.59799C10.0775 6.92994 11.432 5.57545 13.1 5.57545C14.7681 5.57545 16.1226 6.92994 16.1226 8.59799C16.1226 10.0277 15.0691 10.7426 14.6803 11.006Z" fill="#3C3D4C"/>
</svg>
