<svg width="31" height="31" viewBox="0 0 31 31" fill="none" xmlns="http://www.w3.org/2000/svg">
<path d="M26.9646 20.3395C27.3157 20.3395 27.5916 20.6154 27.5916 20.9666V22.2207C27.5916 24.3027 25.911 25.9832 23.8291 25.9832C23.8291 23.9139 22.136 22.2207 20.0666 22.2207C17.9973 22.2207 16.3041 23.9139 16.3041 25.9832H13.7958C13.7958 23.9139 12.1027 22.2207 10.0333 22.2207C7.96393 22.2207 6.2708 23.9139 6.2708 25.9832C4.18888 25.9832 2.5083 24.3027 2.5083 22.2207V19.7124C2.5083 19.0226 3.07268 18.4582 3.76247 18.4582H15.677C17.4078 18.4582 18.8125 17.0536 18.8125 15.3228V8.42491C18.8125 7.73512 19.3768 7.17075 20.0666 7.17075H21.1201C22.0231 7.17075 22.8509 7.65987 23.3024 8.43745L24.105 9.84212C24.2179 10.0428 24.0674 10.3062 23.8291 10.3062C22.0984 10.3062 20.6937 11.7108 20.6937 13.4416V17.2041C20.6937 18.9348 22.0984 20.3395 23.8291 20.3395H26.9646Z" fill="#3C3D4C"/>
<path d="M10.0332 28.4917C11.4186 28.4917 12.5416 27.3687 12.5416 25.9833C12.5416 24.598 11.4186 23.475 10.0332 23.475C8.64792 23.475 7.5249 24.598 7.5249 25.9833C7.5249 27.3687 8.64792 28.4917 10.0332 28.4917Z" fill="#3C3D4C"/>
<path d="M20.0667 28.4917C21.452 28.4917 22.575 27.3687 22.575 25.9833C22.575 24.598 21.452 23.475 20.0667 23.475C18.6814 23.475 17.5583 24.598 17.5583 25.9833C17.5583 27.3687 18.6814 28.4917 20.0667 28.4917Z" fill="#3C3D4C"/>
<path d="M27.5916 16.6147V18.4583H23.8291C23.1393 18.4583 22.575 17.894 22.575 17.2042V13.4417C22.575 12.7519 23.1393 12.1875 23.8291 12.1875H25.447L27.2655 15.3731C27.4787 15.7493 27.5916 16.1757 27.5916 16.6147Z" fill="#3C3D4C"/>
<path d="M16.4045 3.40826H7.13618C4.89122 3.40826 3.00997 5.0136 2.59609 7.14568H8.0768C8.55338 7.14568 8.92963 7.53447 8.92963 8.01106C8.92963 8.48764 8.55338 8.86389 8.0768 8.86389H2.5083V10.5946H5.76913C6.24572 10.5946 6.63451 10.9834 6.63451 11.46C6.63451 11.9366 6.24572 12.3128 5.76913 12.3128H2.5083V14.0436H3.47401C3.95059 14.0436 4.33938 14.4324 4.33938 14.909C4.33938 15.3856 3.95059 15.7618 3.47401 15.7618H2.5083V16.0503C2.5083 16.7401 3.07268 17.3044 3.76247 17.3044H15.2381C16.5173 17.3044 17.5583 16.2635 17.5583 14.9842V4.5621C17.5583 3.92247 17.0441 3.40826 16.4045 3.40826Z" fill="#3C3D4C"/>
<path d="M2.59606 7.14557H2.40793H1.17885C0.702268 7.14557 0.313477 7.53436 0.313477 8.01094C0.313477 8.48753 0.702268 8.86378 1.17885 8.86378H2.32014H2.50827V8.03603C2.50827 7.73503 2.54589 7.43403 2.59606 7.14557Z" fill="#3C3D4C"/>
<path d="M2.32014 10.5947H1.17885C0.702268 10.5947 0.313477 10.9835 0.313477 11.4601C0.313477 11.9367 0.702268 12.3129 1.17885 12.3129H2.32014H2.50827V10.5947H2.32014Z" fill="#3C3D4C"/>
<path d="M2.32014 14.0436H1.17885C0.702268 14.0436 0.313477 14.4324 0.313477 14.909C0.313477 15.3855 0.702268 15.7618 1.17885 15.7618H2.32014H2.50827V14.0436H2.32014Z" fill="#3C3D4C"/>
</svg>
