<svg width="26" height="26" viewBox="0 0 26 26" fill="none" xmlns="http://www.w3.org/2000/svg">
<path d="M17.8298 0.408234H7.31991C2.75474 0.408234 0.0332031 3.12978 0.0332031 7.69494V18.2049C0.0332031 22.77 2.75474 25.4916 7.31991 25.4916H17.8298C22.395 25.4916 25.1165 22.77 25.1165 18.2049V7.69494C25.1165 3.12978 22.395 0.408234 17.8298 0.408234ZM15.4093 12.9499C16.3875 13.2885 17.6919 14.0034 17.6919 16.2484C17.6919 18.1798 16.1869 19.7475 14.3307 19.7475H13.5155V20.4749C13.5155 20.9891 13.0891 21.4155 12.5749 21.4155C12.0607 21.4155 11.6342 20.9891 11.6342 20.4749V19.7475H11.1827C9.12591 19.7475 7.45787 18.0042 7.45787 15.8721C7.45787 15.3579 7.87175 14.9315 8.3985 14.9315C8.9127 14.9315 9.33912 15.3579 9.33912 15.8721C9.33912 16.9758 10.1669 17.8662 11.1827 17.8662H11.6342V13.6146L9.74045 12.9499C8.7622 12.6113 7.45787 11.8964 7.45787 9.65144C7.45787 7.72003 8.96287 6.15232 10.819 6.15232H11.6342V5.4249C11.6342 4.91069 12.0607 4.48428 12.5749 4.48428C13.0891 4.48428 13.5155 4.91069 13.5155 5.4249V6.15232H13.967C16.0238 6.15232 17.6919 7.89561 17.6919 10.0277C17.6919 10.5419 17.278 10.9683 16.7512 10.9683C16.237 10.9683 15.8106 10.5419 15.8106 10.0277C15.8106 8.92403 14.9829 8.03357 13.967 8.03357H13.5155V12.2852L15.4093 12.9499Z" fill="#3C3D4C"/>
</svg>
