<svg width="20" height="19" viewBox="0 0 20 19" fill="none" xmlns="http://www.w3.org/2000/svg">
<path d="M6.30219 16.3387C6.30219 17.3942 5.44656 18.2498 4.39108 18.2498C3.3356 18.2498 2.47997 17.3942 2.47997 16.3387C2.47997 15.2832 3.3356 14.4276 4.39108 14.4276C5.44656 14.4276 6.30219 15.2832 6.30219 16.3387ZM6.30219 16.3387H13.9466C15.0021 16.3387 15.8577 15.4831 15.8577 14.4276V10.6054M13.9466 2.96092C13.9466 4.01639 14.8023 4.87203 15.8577 4.87203C16.9132 4.87203 17.7689 4.01639 17.7689 2.96092C17.7689 1.90544 16.9132 1.0498 15.8577 1.0498C14.8023 1.0498 13.9466 1.90544 13.9466 2.96092ZM13.9466 2.96092H6.30219C5.24671 2.96092 4.39108 3.81655 4.39108 4.87203V8.69425M18.7244 12.5165L16.1956 9.80012C16.009 9.5997 15.7065 9.5997 15.5199 9.80012L12.9911 12.5165M7.25775 6.78314L4.72892 9.49949C4.54234 9.69991 4.23982 9.69991 4.05324 9.49949L1.52441 6.78314" stroke="#0A0B0B" stroke-width="1.1825" stroke-linecap="round"/>
</svg>
