<svg width="16" height="17" viewBox="0 0 16 17" fill="none" xmlns="http://www.w3.org/2000/svg">
<path d="M7.66659 15.0002C3.89992 15.0002 0.833252 11.9335 0.833252 8.16683C0.833252 4.40016 3.89992 1.3335 7.66659 1.3335C11.4333 1.3335 14.4999 4.40016 14.4999 8.16683C14.4999 11.9335 11.4333 15.0002 7.66659 15.0002ZM7.66659 2.3335C4.44659 2.3335 1.83325 4.9535 1.83325 8.16683C1.83325 11.3802 4.44659 14.0002 7.66659 14.0002C10.8866 14.0002 13.4999 11.3802 13.4999 8.16683C13.4999 4.9535 10.8866 2.3335 7.66659 2.3335Z" fill="white"/>
<path d="M14.6666 15.6666C14.54 15.6666 14.4133 15.62 14.3133 15.52L12.98 14.1866C12.7866 13.9933 12.7866 13.6733 12.98 13.48C13.1733 13.2866 13.4933 13.2866 13.6866 13.48L15.02 14.8133C15.2133 15.0066 15.2133 15.3266 15.02 15.52C14.92 15.62 14.7933 15.6666 14.6666 15.6666Z" fill="white"/>
</svg>
