<svg width="18" height="18" viewBox="0 0 18 18" fill="none" xmlns="http://www.w3.org/2000/svg">
<path d="M1.125 5.15625H17.25M4.35 13.2188H7.575M10.8 13.2188H14.025M3.705 17.25H14.67C15.5731 17.25 16.0246 17.25 16.3696 17.0303C16.673 16.8371 16.9197 16.5287 17.0742 16.1494C17.25 15.7183 17.25 15.1539 17.25 14.025V4.35C17.25 3.22114 17.25 2.65672 17.0742 2.22555C16.9197 1.84629 16.673 1.53793 16.3696 1.34469C16.0246 1.125 15.5731 1.125 14.67 1.125H3.705C2.80192 1.125 2.35037 1.125 2.00544 1.34469C1.70203 1.53793 1.45535 1.84629 1.30075 2.22555C1.125 2.65672 1.125 3.22114 1.125 4.35V14.025C1.125 15.1539 1.125 15.7183 1.30075 16.1494C1.45535 16.5287 1.70203 16.8371 2.00544 17.0303C2.35037 17.25 2.80192 17.25 3.705 17.25Z" stroke="#0A0B0B" stroke-width="1.1825" stroke-linecap="round"/>
</svg>
