<svg width="16" height="10" viewBox="0 0 16 10" fill="none" xmlns="http://www.w3.org/2000/svg">
<path fill-rule="evenodd" clip-rule="evenodd" d="M4.4314 4.99156C4.4314 3.02467 6.03125 1.42415 8.00027 1.42415C9.96719 1.42415 11.567 3.02463 11.567 4.99156C11.567 6.9589 9.96719 8.55872 8.00027 8.55872C6.03122 8.55872 4.4314 6.9589 4.4314 4.99156ZM0.0922991 4.65122C-0.0307664 4.87381 -0.0307664 5.1093 0.0922991 5.33211C1.69003 8.2012 4.71994 9.98353 8.00027 9.98353C11.2784 9.98353 14.3084 8.20124 15.9061 5.33211C16.0313 5.1093 16.0313 4.87381 15.9061 4.65122C14.3084 1.78212 11.2785 0 8.00027 0C4.71994 0 1.69003 1.78212 0.0922991 4.65122ZM8.00027 2.59328C6.67627 2.59328 5.60049 3.66902 5.60049 4.99156C5.60049 6.31406 6.67623 7.38984 8.00027 7.38984C9.32214 7.38984 10.3979 6.3141 10.3979 4.99156C10.3979 3.66902 9.32214 2.59328 8.00027 2.59328Z" fill="#858585"/>
</svg>
