<svg width="19" height="19" viewBox="0 0 19 19" fill="none" xmlns="http://www.w3.org/2000/svg">
<path d="M13.5574 18.2498H5.74224C4.66319 18.2498 3.78845 17.3905 3.78845 16.3306V9.19792C3.78845 8.64298 3.10543 8.36507 2.70596 8.75747C2.34126 9.11572 1.71689 8.91917 1.6321 8.41942L1.07647 5.14463C0.944516 4.36692 1.3102 3.58905 1.99846 3.1834L5.56106 1.08366C5.66483 1.02251 5.79863 1.04613 5.87422 1.13895C7.80984 3.51565 11.4898 3.51565 13.4254 1.13895C13.501 1.04613 13.6348 1.02251 13.7385 1.08366L17.3012 3.1834C17.9894 3.58905 18.3551 4.36692 18.2231 5.14463L17.6675 8.41942C17.5827 8.91917 16.9583 9.11572 16.5936 8.75747C16.1942 8.36507 15.5112 8.64298 15.5112 9.19792V16.3306C15.5112 17.3905 14.6364 18.2498 13.5574 18.2498Z" stroke="#0A0B0B" stroke-width="1.1825"/>
</svg>
