<svg width="15" height="15" viewBox="0 0 15 15" fill="none" xmlns="http://www.w3.org/2000/svg">
<path d="M7.81231 8.60521C6.79472 8.60521 5.96328 7.77823 5.96328 6.75618C5.96328 5.73551 6.79332 4.91299 7.81231 4.91299C8.82991 4.91299 9.66134 5.73997 9.66134 6.76202C9.66134 7.78268 8.8313 8.60521 7.81231 8.60521ZM7.81231 4.96455C6.82594 4.96455 6.01484 5.76754 6.01484 6.76202C6.01484 7.75537 6.81896 8.55949 7.81231 8.55949C8.80566 8.55949 9.60978 7.75537 9.60978 6.76202C9.60978 5.76754 8.79868 4.96455 7.81231 4.96455Z" fill="#101828" stroke="white" stroke-width="0.825"/>
<path d="M2.89196 5.69692L2.89207 5.69646C3.48796 3.07131 5.7766 1.88027 7.81346 1.88027H7.81346H7.81347H7.81347H7.81348H7.81348H7.81348H7.81349H7.81349H7.8135H7.8135H7.8135H7.81351H7.81351H7.81352H7.81352H7.81353H7.81353H7.81353H7.81354H7.81354H7.81355H7.81355H7.81356H7.81356H7.81356H7.81357H7.81357H7.81358H7.81358H7.81359H7.81359H7.8136H7.81361H7.81361H7.81362H7.81362H7.81363H7.81364H7.81364H7.81365H7.81366H7.81367H7.81367H7.81367H7.81368H7.81368H7.81368H7.81369H7.81369H7.8137H7.8137H7.8137H7.81371H7.81371H7.81372H7.81372H7.81373H7.81373H7.81374H7.81374H7.81374H7.81375H7.81375H7.81376H7.81376H7.81377H7.81377H7.81378H7.81378H7.81379H7.81379H7.8138H7.8138H7.81381H7.81381H7.81382H7.81382H7.81383H7.81383H7.81384H7.81385H7.81385H7.81386H7.81386H7.81387H7.81387H7.81388H7.81389H7.81389H7.8139H7.8139H7.81391H7.81392H7.81392H7.81393H7.81394H7.81394H7.81395H7.81396H7.81396H7.81397H7.81398H7.81398H7.81399H7.814H7.814H7.81401H7.81402H7.81402H7.81403H7.81404H7.81405H7.81405H7.81406H7.81407H7.81408H7.81408H7.81409H7.8141H7.81411H7.81412H7.81412H7.81413H7.81414H7.81415H7.81416H7.81416H7.81417H7.81418H7.81419H7.8142H7.81421H7.81422H7.81422H7.81423H7.81424H7.81425H7.81426H7.81427H7.81428H7.81429H7.8143H7.81431H7.81432H7.81433H7.81434H7.81435H7.81435H7.81436H7.81437H7.81438H7.81439H7.8144H7.81441H7.81443H7.81444H7.81445H7.81446H7.81447H7.81448H7.81449H7.8145H7.81451H7.81452H7.81453H7.81454H7.81455H7.81457H7.81458H7.81459H7.8146H7.81461H7.81462H7.81463H7.81465H7.81466H7.81467H7.81468H7.81469H7.81471H7.81472H7.81473H7.81474H7.81476H7.81477H7.81478H7.81479H7.81481H7.81482H7.81483H7.81485H7.81486H7.81487H7.81489H7.8149H7.81491H7.81493H7.81494H7.81495H7.81497H7.81498H7.815H7.81501H7.81502H7.81504H7.81505H7.81507H7.81508H7.8151H7.81511H7.81513H7.81514H7.81516H7.81517H7.81519H7.8152H7.81522H7.81523H7.81525H7.81526H7.81528H7.81529H7.81531H7.81533H7.81534H7.81536H7.81537H7.81539H7.81541H7.81542H7.81544H7.81546H7.81547H7.81549H7.81551H7.81553H7.81554H7.81556H7.81558H7.81559H7.81561H7.81563H7.81565H7.81566H7.81568H7.8157H7.81572H7.81574H7.81576H7.81577H7.81579H7.81581H7.81583H7.81585H7.81587H7.81589H7.81591H7.81592H7.81594H7.81596H7.81598H7.816H7.81602H7.81604H7.81606H7.81608H7.8161H7.81612H7.81614H7.81616H7.81618H7.8162H7.81623H7.81625H7.81627H7.81629H7.81631H7.81633H7.81635H7.81637H7.81639H7.81642H7.81644H7.81646H7.81648H7.8165H7.81653H7.81655H7.81657H7.81659H7.81662H7.81664H7.81666H7.81669H7.81671H7.81673H7.81675H7.81678H7.8168H7.81683H7.81685H7.81687H7.8169H7.81692H7.81695H7.81697H7.81699H7.81702H7.81704H7.81707H7.81709H7.81712H7.81714H7.81717H7.81719H7.81722H7.81724H7.81727H7.8173H7.81732H7.81735H7.81737H7.8174H7.81743H7.81745H7.81748H7.81751H7.81753H7.81756H7.81759H7.81762H7.81764H7.81767H7.8177H7.81773H7.81775H7.81778H7.81781H7.81784H7.81787H7.81789H7.81792H7.81795H7.81798H7.81801H7.81804H7.81807H7.8181H7.81813H7.81816H7.81818H7.81821H7.81824H7.81827H7.8183H7.81834H7.81837H7.8184H7.81843H7.81846H7.81849H7.81852H7.81855H7.81858H7.81861H7.81865H7.81868H7.81871H7.81874H7.81877H7.8188H7.81884H7.81887H7.8189H7.81893H7.81897H7.819H7.81903H7.81907H7.8191H7.81913H7.81917H7.8192H7.81923H7.81927H7.8193C9.85587 1.88027 12.1446 3.07103 12.7406 5.70206C13.4031 8.62882 11.6408 11.1278 9.94137 12.7641C9.342 13.3374 8.57427 13.6252 7.81346 13.6252C7.05265 13.6252 6.28492 13.3374 5.68555 12.7641C3.98626 11.128 2.22412 8.62347 2.89196 5.69692ZM12.6922 5.70742L12.6918 5.70578C12.0506 2.91017 9.63668 1.93184 7.81346 1.93184C5.98994 1.93184 3.58167 2.91052 2.94666 5.70627C2.26378 8.68554 4.14211 11.2015 5.7276 12.7221C6.89828 13.8516 8.73459 13.8516 9.90524 12.722C11.4848 11.2016 13.3626 8.68608 12.6922 5.70742Z" fill="#101828" stroke="white" stroke-width="0.825"/>
</svg>
