<svg width="21" height="17" viewBox="0 0 21 17" fill="none" xmlns="http://www.w3.org/2000/svg">
<path d="M12.5846 13.6667V1.62667C12.5846 1.3496 12.368 1.125 12.1009 1.125H1.45836C1.19119 1.125 0.974609 1.3496 0.974609 1.62667V13.6667C0.974609 13.9437 1.19119 14.1683 1.45836 14.1683H2.90961M12.5846 13.6667C12.5846 13.9437 12.368 14.1683 12.1009 14.1683H6.77961M12.5846 13.6667V4.63667C12.5846 4.3596 12.8012 4.135 13.0684 4.135H16.2542C16.3825 4.135 16.5056 4.18785 16.5963 4.28193L20.1829 8.0014C20.2736 8.09548 20.3246 8.22308 20.3246 8.35613V13.6667C20.3246 13.9437 20.108 14.1683 19.8409 14.1683H18.3896M12.5846 13.6667C12.5846 13.9437 12.8012 14.1683 13.0684 14.1683H14.5196M2.90961 14.1683C2.90961 15.2766 3.77594 16.175 4.84461 16.175C5.91328 16.175 6.77961 15.2766 6.77961 14.1683M2.90961 14.1683C2.90961 13.0601 3.77594 12.1617 4.84461 12.1617C5.91328 12.1617 6.77961 13.0601 6.77961 14.1683M14.5196 14.1683C14.5196 15.2766 15.3859 16.175 16.4546 16.175C17.5233 16.175 18.3896 15.2766 18.3896 14.1683M14.5196 14.1683C14.5196 13.0601 15.3859 12.1617 16.4546 12.1617C17.5233 12.1617 18.3896 13.0601 18.3896 14.1683" stroke="#0A0B0B" stroke-width="1.1825"/>
</svg>
