<svg width="24" height="22" viewBox="0 0 24 22" fill="none" xmlns="http://www.w3.org/2000/svg">
<path d="M23.765 3.19793C23.1647 4.04578 22.4391 4.78536 21.6162 5.38812C21.6162 5.6096 21.6162 5.83108 21.6162 6.06486C21.6228 10.0869 20.1055 13.9435 17.4044 16.7701C14.7033 19.5968 11.0445 21.1569 7.24804 21.1009C5.05324 21.1086 2.88654 20.578 0.917681 19.5505C0.81152 19.5014 0.743047 19.3902 0.743451 19.2675V19.1322C0.743451 18.9555 0.87866 18.8122 1.04545 18.8122C3.20289 18.737 5.28335 17.9449 6.9925 16.5482C5.03972 16.5066 3.28272 15.2817 2.47414 13.3983C2.43329 13.2954 2.44601 13.1774 2.50769 13.087C2.56937 12.9965 2.67111 12.9466 2.77613 12.9553C3.36963 13.0185 3.96905 12.96 4.54167 12.7831C2.38596 12.3093 0.766189 10.4144 0.534375 8.09509C0.526136 7.98384 0.573225 7.87607 0.658631 7.81073C0.744037 7.74539 0.855414 7.73191 0.952527 7.77518C1.53102 8.04546 2.15551 8.18781 2.78775 8.19353C0.898841 6.88082 0.0829578 4.38399 0.801527 2.11514C0.875701 1.89468 1.0539 1.73181 1.27064 1.6864C1.48739 1.64098 1.7107 1.71971 1.85852 1.89367C4.40749 4.76611 7.9098 6.47778 11.627 6.66778C11.5318 6.26549 11.485 5.85207 11.4876 5.43734C11.5224 3.26269 12.7932 1.32547 14.7051 0.53261C16.6169 -0.260249 18.7915 0.248167 20.2108 1.81984C21.1782 1.6247 22.1134 1.28063 22.9868 0.798571C23.0508 0.75628 23.1319 0.75628 23.1959 0.798571C23.2358 0.866341 23.2358 0.952281 23.1959 1.02005C22.7729 2.04575 22.0582 2.90604 21.1516 3.48094C21.9455 3.38345 22.7255 3.18516 23.4747 2.89032C23.5377 2.84486 23.6207 2.84486 23.6837 2.89032C23.7366 2.91592 23.7761 2.96488 23.7918 3.02415C23.8074 3.08342 23.7977 3.14699 23.765 3.19793Z" fill="white"/>
</svg>
