<svg width="20" height="20" viewBox="0 0 20 20" fill="none" xmlns="http://www.w3.org/2000/svg">
<path fill-rule="evenodd" clip-rule="evenodd" d="M10 20C4.47715 20 0 15.5228 0 10C0 4.47715 4.47715 0 10 0C15.5228 0 20 4.47715 20 10C20 15.5228 15.5228 20 10 20ZM10.3296 15.5635C13.6081 15.5622 16.2746 12.8951 16.2759 9.61729C16.2765 8.02847 15.6586 6.53451 14.5359 5.41059C13.4133 4.28661 11.9203 3.66735 10.3296 3.66667C7.05201 3.66667 4.38449 6.33404 4.38319 9.6126C4.38274 10.6606 4.65656 11.6835 5.17692 12.5854L4.33333 15.6667L7.48556 14.8398C8.35408 15.3135 9.33196 15.5632 10.3272 15.5635H10.3296Z" fill="white"/>
<path fill-rule="evenodd" clip-rule="evenodd" d="M7.63166 13.7632L5.76108 14.2539L6.26037 12.4301L6.14286 12.2431C5.64812 11.4562 5.38682 10.5467 5.38721 9.61283C5.38829 6.88784 7.60544 4.6709 10.3316 4.6709C11.6517 4.67136 12.8926 5.18609 13.8257 6.12029C14.7589 7.0545 15.2725 8.29622 15.2719 9.61683C15.2709 12.342 13.0537 14.5592 10.3297 14.5592H10.3277C9.4408 14.5588 8.57096 14.3206 7.81213 13.8703L7.63166 13.7632ZM13.3254 11.0312C13.2882 10.9692 13.1892 10.932 13.0406 10.8576C12.8921 10.7833 12.1616 10.4239 12.0254 10.3742C11.8892 10.3247 11.7901 10.2999 11.6911 10.4486C11.592 10.5973 11.3073 10.932 11.2206 11.0312C11.1339 11.1303 11.0473 11.1428 10.8987 11.0684C10.7502 10.994 10.2714 10.8371 9.7039 10.3309C9.26221 9.93693 8.96402 9.45041 8.87735 9.30166C8.79068 9.15291 8.86811 9.07252 8.94249 8.99843C9.00934 8.93184 9.09108 8.82485 9.16536 8.73812C9.23965 8.65139 9.26441 8.58937 9.31394 8.49028C9.36346 8.39108 9.3387 8.30434 9.30155 8.22997C9.26441 8.15559 8.96727 7.42426 8.84346 7.12676C8.72284 6.83704 8.60036 6.87629 8.50917 6.87171C8.4226 6.86736 8.32344 6.86645 8.2244 6.86645C8.12536 6.86645 7.96438 6.90364 7.82819 7.05238C7.69201 7.20113 7.30818 7.56059 7.30818 8.29187C7.30818 9.02321 7.84057 9.72971 7.91486 9.82886C7.98915 9.92806 8.96254 11.4288 10.453 12.0723C10.8075 12.2254 11.0842 12.3168 11.3 12.3853C11.6559 12.4984 11.9799 12.4825 12.2358 12.4442C12.5213 12.4015 13.1149 12.0848 13.2388 11.7377C13.3625 11.3906 13.3625 11.0931 13.3254 11.0312Z" fill="white"/>
</svg>
