<svg width="22" height="20" viewBox="0 0 22 20" fill="none" xmlns="http://www.w3.org/2000/svg">
<path d="M11.4957 18.755C10.9932 19.2125 10.2251 19.2125 9.72259 18.755C7.80493 16.9983 6.22106 15.4861 4.97097 14.2185C3.72088 12.951 2.72697 11.826 1.98925 10.8435C1.25151 9.86107 0.736306 8.97388 0.443639 8.18198C0.150972 7.39007 0.00463867 6.59606 0.00463867 5.79995C0.00463867 4.26892 0.520913 2.98707 1.55346 1.95441C2.58601 0.921735 3.8622 0.405396 5.38204 0.405396C6.42102 0.405396 7.38451 0.667292 8.2725 1.19108C9.64894 2.00297 11.594 2.02492 12.9632 1.20088C12.9862 1.18705 13.0092 1.17341 13.0323 1.15996C13.8949 0.656919 14.8296 0.405396 15.8363 0.405396C17.3561 0.405396 18.6323 0.921735 19.6649 1.95441C20.6974 2.98707 21.2137 4.26892 21.2137 5.79995C21.2137 6.59606 21.0673 7.39007 20.7747 8.18198C20.482 8.97388 19.9672 9.86029 19.2303 10.8412C18.4934 11.8221 17.4995 12.9471 16.2486 14.2162C14.9977 15.4853 13.4134 16.9983 11.4957 18.755ZM6.03569 13.5387C8.56296 16.0585 12.6812 16.0556 15.1892 13.5167C16.3874 12.3037 17.3393 11.2424 18.045 10.3328C18.7507 9.42323 19.2441 8.61456 19.5253 7.90683C19.8065 7.19907 19.9472 6.49813 19.9472 5.80397C19.9472 4.60918 19.56 3.6218 18.7858 2.84185C18.0116 2.06189 17.0305 1.67191 15.8426 1.67191C14.8911 1.67191 14.0165 1.95598 13.2185 2.52413C12.5346 3.01112 11.9251 3.69734 11.39 4.5828C11.2217 4.86128 10.9256 5.04218 10.6002 5.04218C10.2752 5.04218 9.97938 4.86173 9.81085 4.58388C9.27939 3.70771 8.67219 3.02399 7.98925 2.53272C7.19147 1.95885 6.3203 1.67191 5.37576 1.67191C4.19497 1.67191 3.21568 2.06189 2.43788 2.84185C1.66006 3.6218 1.27116 4.61196 1.27116 5.81232C1.27116 6.50537 1.41234 7.20766 1.6947 7.91919C1.97706 8.63072 2.46864 9.44357 3.16945 10.3578C3.87026 11.2719 4.82568 12.3322 6.03569 13.5387Z" fill="#1C1B1F"/>
</svg>
